<svg width="313" height="252" viewBox="0 0 313 252" fill="none" xmlns="http://www.w3.org/2000/svg">
<mask id="mask0" mask-type="alpha" maskUnits="userSpaceOnUse" x="54" y="0" width="185" height="145">
<path d="M63 77.3605C87.945 64.4868 75.0786 8 97.923 8C127.069 8 138.885 137 165.143 137C195.293 137 204.174 16.8994 230 8.4659" stroke="#D93F87" stroke-width="16" stroke-linecap="round" stroke-linejoin="round"/>
</mask>
<g mask="url(#mask0)">
<path d="M63 77.3605C87.945 64.4868 75.0786 8 97.923 8C127.069 8 138.885 137 165.143 137C195.293 137 204.174 16.8994 230 8.4659" stroke="#D93F87" stroke-width="16" stroke-linecap="round" stroke-linejoin="round"/>
<rect style="mix-blend-mode:multiply" x="81.9703" y="3.7887" width="35.0721" height="17.0768" transform="rotate(54.8939 81.9703 3.7887)" fill="url(#paint0_linear)" fill-opacity="0.25"/>
<rect style="mix-blend-mode:multiply" x="219.36" width="35.0721" height="23.6648" transform="rotate(54.8939 219.36 0)" fill="url(#paint1_linear)" fill-opacity="0.18"/>
<rect style="mix-blend-mode:multiply" x="196.36" y="67" width="35.0721" height="23.6648" transform="rotate(54.8939 196.36 67)" fill="url(#paint2_linear)" fill-opacity="0.25"/>
<rect style="mix-blend-mode:multiply" x="69.7462" y="81.3402" width="34.1171" height="23.6648" transform="rotate(-119.396 69.7462 81.3402)" fill="url(#paint3_linear)" fill-opacity="0.15"/>
<rect style="mix-blend-mode:multiply" x="176.746" y="138.34" width="34.1171" height="23.6648" transform="rotate(-119.396 176.746 138.34)" fill="url(#paint4_linear)" fill-opacity="0.2"/>
<rect style="mix-blend-mode:multiply" x="199.246" y="93.812" width="50.8365" height="33.658" transform="rotate(-119.396 199.246 93.812)" fill="url(#paint5_linear)" fill-opacity="0.25"/>
</g>
<mask id="mask1" mask-type="alpha" maskUnits="userSpaceOnUse" x="38" y="0" width="242" height="145">
<path d="M47 11.1657C94.0244 8.00003 98.2277 137 123.447 137C150.506 137 166.531 8.00003 191.226 8.00003C215.92 8.00003 231.157 135.945 259.266 135.945C264 135.945 267.834 133.525 271 129.35" stroke="#374785" stroke-width="16" stroke-linecap="round" stroke-linejoin="round"/>
</mask>
<g mask="url(#mask1)">
<path d="M47 11.1657C94.0244 8.00003 98.2277 137 123.447 137C150.506 137 166.531 8.00003 191.226 8.00003C215.92 8.00003 231.157 135.945 259.266 135.945C264 135.945 267.834 133.525 271 129.35" stroke="#374785" stroke-width="16" stroke-linecap="round" stroke-linejoin="round"/>
<rect style="mix-blend-mode:multiply" x="132.241" y="155.321" width="62.0403" height="23.6648" transform="rotate(-108.068 132.241 155.321)" fill="url(#paint6_linear)" fill-opacity="0.22"/>
<rect style="mix-blend-mode:multiply" x="162.241" y="89.3206" width="62.0403" height="23.6648" transform="rotate(-108.068 162.241 89.3206)" fill="url(#paint7_linear)" fill-opacity="0.22"/>
<rect style="mix-blend-mode:multiply" x="155.155" y="64" width="62.0403" height="23.6648" transform="rotate(69.4201 155.155 64)" fill="url(#paint8_linear)" fill-opacity="0.22"/>
<rect style="mix-blend-mode:multiply" x="174.391" y="-14" width="62.0403" height="23.6648" transform="rotate(64.6787 174.391 -14)" fill="url(#paint9_linear)" fill-opacity="0.22"/>
</g>
<mask id="mask2" mask-type="alpha" maskUnits="userSpaceOnUse" x="77" y="0" width="180" height="145">
<path d="M85 137C116.64 137 113.74 8 147.225 8C175.701 8 185.984 137 213.669 137C236.052 137 227.116 83.666 249 60.8086" stroke="#91CCF4" stroke-width="16" stroke-linecap="round" stroke-linejoin="round"/>
</mask>
<g mask="url(#mask2)">
<path d="M85 137C116.64 137 113.74 8 147.225 8C175.701 8 185.984 137 213.669 137C236.052 137 227.116 83.666 249 60.8086" stroke="#91CCF4" stroke-width="16" stroke-linecap="round" stroke-linejoin="round"/>
<rect style="mix-blend-mode:multiply" x="124.556" y="98.069" width="62.0403" height="16.2961" transform="rotate(-109.447 124.556 98.069)" fill="url(#paint10_linear)" fill-opacity="0.25"/>
<rect style="mix-blend-mode:multiply" x="128.023" y="-7.88025" width="62.0403" height="19.9519" transform="rotate(72.4472 128.023 -7.88025)" fill="url(#paint11_linear)" fill-opacity="0.15"/>
<rect style="mix-blend-mode:multiply" x="244.563" y="46" width="62.0403" height="23.6648" transform="rotate(72.4472 244.563 46)" fill="url(#paint12_linear)" fill-opacity="0.13"/>
<rect style="mix-blend-mode:multiply" x="228.595" y="148.248" width="62.0403" height="16.9817" transform="rotate(-108.068 228.595 148.248)" fill="url(#paint13_linear)" fill-opacity="0.18"/>
</g>
<path d="M97.923 8C127.069 8 138.885 137 165.143 137" stroke="#D93F87" stroke-width="16" stroke-linecap="round" stroke-linejoin="round"/>
<path d="M47 11.1657C94.0244 8.00002 98.2277 137 123.447 137" stroke="#374785" stroke-width="16" stroke-linecap="round" stroke-linejoin="round"/>
<path d="M191.226 8C215.92 8 231.157 135.945 259.266 135.945C264 135.945 267.834 133.525 271 129.35" stroke="#374785" stroke-width="16" stroke-linecap="round" stroke-linejoin="round"/>
<path d="M60.956 147.42C63.6347 147.42 65.758 148.237 67.326 149.87C68.9593 151.438 69.776 153.561 69.776 156.24V208.67C69.776 211.349 68.9593 213.505 67.326 215.138C65.758 216.771 63.6347 217.588 60.956 217.588C58.2773 217.588 56.1213 216.804 54.488 215.236C52.92 213.603 52.136 211.414 52.136 208.67V189.07H23.912V208.67C23.912 211.349 23.0953 213.505 21.462 215.138C19.894 216.771 17.7707 217.588 15.092 217.588C12.4133 217.588 10.2573 216.804 8.624 215.236C7.056 213.603 6.272 211.414 6.272 208.67V156.24C6.272 153.561 7.056 151.438 8.624 149.87C10.2573 148.237 12.4133 147.42 15.092 147.42C17.7707 147.42 19.894 148.237 21.462 149.87C23.0953 151.438 23.912 153.561 23.912 156.24V174.762H52.136V156.24C52.136 153.561 52.92 151.438 54.488 149.87C56.1213 148.237 58.2773 147.42 60.956 147.42ZM120.38 201.516C121.883 201.516 123.091 202.104 124.006 203.28C124.986 204.456 125.476 205.991 125.476 207.886C125.476 210.499 124.202 212.492 121.654 213.864C119.433 214.975 116.787 215.922 113.716 216.706C110.711 217.425 107.934 217.784 105.386 217.784C100.029 217.784 95.3573 216.771 91.372 214.746C87.3867 212.721 84.316 209.813 82.16 206.024C80.004 202.235 78.926 197.792 78.926 192.696C78.926 187.861 79.9387 183.549 81.964 179.76C84.0547 175.905 86.9293 172.933 90.588 170.842C94.312 168.686 98.4933 167.608 103.132 167.608C107.64 167.608 111.593 168.588 114.99 170.548C118.387 172.508 121.001 175.285 122.83 178.878C124.725 182.471 125.672 186.685 125.672 191.52C125.672 193.023 125.313 194.199 124.594 195.048C123.941 195.832 122.961 196.224 121.654 196.224H95.782C96.2393 199.36 97.252 201.614 98.82 202.986C100.388 204.358 102.707 205.044 105.778 205.044C107.411 205.044 108.914 204.881 110.286 204.554C111.658 204.162 113.193 203.639 114.892 202.986C115.872 202.594 116.819 202.267 117.734 202.006C118.714 201.679 119.596 201.516 120.38 201.516ZM103.622 179.368C101.335 179.368 99.506 180.119 98.134 181.622C96.762 183.059 95.9453 185.183 95.684 187.992H111.07C110.678 182.243 108.195 179.368 103.622 179.368ZM142.347 217.588C139.865 217.588 137.774 216.935 136.075 215.628C134.442 214.256 133.625 212.231 133.625 209.552V155.554C133.625 152.875 134.442 150.85 136.075 149.478C137.774 148.106 139.865 147.42 142.347 147.42C144.83 147.42 146.888 148.106 148.521 149.478C150.22 150.85 151.069 152.875 151.069 155.554V209.552C151.069 212.231 150.22 214.256 148.521 215.628C146.888 216.935 144.83 217.588 142.347 217.588ZM193.136 167.608C197.252 167.608 200.91 168.686 204.112 170.842C207.378 172.933 209.894 175.905 211.658 179.76C213.487 183.615 214.402 188.025 214.402 192.99C214.402 197.955 213.487 202.333 211.658 206.122C209.894 209.846 207.411 212.721 204.21 214.746C201.008 216.771 197.317 217.784 193.136 217.784C190.065 217.784 187.223 217.163 184.61 215.922C182.062 214.681 180.069 213.015 178.632 210.924V227.584C178.632 229.871 177.848 231.7 176.28 233.072C174.712 234.444 172.654 235.13 170.106 235.13C167.427 235.13 165.271 234.379 163.638 232.876C162.004 231.439 161.188 229.577 161.188 227.29V175.84C161.188 173.423 161.939 171.495 163.442 170.058C165.01 168.555 167.1 167.804 169.714 167.804C172.196 167.804 174.189 168.457 175.692 169.764C177.26 171.071 178.142 172.802 178.338 174.958C179.71 172.671 181.702 170.875 184.316 169.568C186.994 168.261 189.934 167.608 193.136 167.608ZM187.844 204.75C190.849 204.75 193.136 203.737 194.704 201.712C196.337 199.687 197.154 196.779 197.154 192.99C197.154 189.005 196.337 185.967 194.704 183.876C193.07 181.72 190.751 180.642 187.746 180.642C184.74 180.642 182.421 181.687 180.788 183.778C179.154 185.869 178.338 188.874 178.338 192.794C178.338 196.649 179.154 199.621 180.788 201.712C182.421 203.737 184.773 204.75 187.844 204.75ZM261.638 201.516C263.14 201.516 264.349 202.104 265.264 203.28C266.244 204.456 266.734 205.991 266.734 207.886C266.734 210.499 265.46 212.492 262.912 213.864C260.69 214.975 258.044 215.922 254.974 216.706C251.968 217.425 249.192 217.784 246.644 217.784C241.286 217.784 236.615 216.771 232.63 214.746C228.644 212.721 225.574 209.813 223.418 206.024C221.262 202.235 220.184 197.792 220.184 192.696C220.184 187.861 221.196 183.549 223.222 179.76C225.312 175.905 228.187 172.933 231.846 170.842C235.57 168.686 239.751 167.608 244.39 167.608C248.898 167.608 252.85 168.588 256.248 170.548C259.645 172.508 262.258 175.285 264.088 178.878C265.982 182.471 266.93 186.685 266.93 191.52C266.93 193.023 266.57 194.199 265.852 195.048C265.198 195.832 264.218 196.224 262.912 196.224H237.04C237.497 199.36 238.51 201.614 240.078 202.986C241.646 204.358 243.965 205.044 247.036 205.044C248.669 205.044 250.172 204.881 251.544 204.554C252.916 204.162 254.451 203.639 256.15 202.986C257.13 202.594 258.077 202.267 258.992 202.006C259.972 201.679 260.854 201.516 261.638 201.516ZM244.88 179.368C242.593 179.368 240.764 180.119 239.392 181.622C238.02 183.059 237.203 185.183 236.942 187.992H252.328C251.936 182.243 249.453 179.368 244.88 179.368ZM305.459 167.804C307.68 167.608 309.444 168.131 310.751 169.372C312.058 170.548 312.711 172.312 312.711 174.664C312.711 177.277 312.09 179.172 310.849 180.348C309.673 181.524 307.517 182.275 304.381 182.602L301.441 182.896C298.174 183.288 295.822 184.333 294.385 186.032C293.013 187.665 292.327 189.919 292.327 192.794V209.552C292.327 212.231 291.478 214.256 289.779 215.628C288.146 216.935 286.088 217.588 283.605 217.588C281.122 217.588 279.032 216.935 277.333 215.628C275.7 214.256 274.883 212.231 274.883 209.552V175.644C274.883 173.161 275.7 171.234 277.333 169.862C279.032 168.49 281.057 167.804 283.409 167.804C285.826 167.804 287.754 168.457 289.191 169.764C290.694 171.071 291.445 172.9 291.445 175.252V177.114C292.49 174.239 294.189 172.018 296.541 170.45C298.958 168.882 301.474 168.033 304.087 167.902L305.459 167.804Z" fill="#D93F87"/>
<defs>
<linearGradient id="paint0_linear" x1="99.5064" y1="3.7887" x2="99.5064" y2="20.8655" gradientUnits="userSpaceOnUse">
<stop stop-opacity="0"/>
<stop offset="1"/>
</linearGradient>
<linearGradient id="paint1_linear" x1="236.896" y1="0" x2="236.896" y2="23.6648" gradientUnits="userSpaceOnUse">
<stop stop-opacity="0"/>
<stop offset="1"/>
</linearGradient>
<linearGradient id="paint2_linear" x1="213.896" y1="67" x2="213.896" y2="90.6648" gradientUnits="userSpaceOnUse">
<stop stop-opacity="0"/>
<stop offset="1"/>
</linearGradient>
<linearGradient id="paint3_linear" x1="86.8048" y1="81.3402" x2="86.8048" y2="105.005" gradientUnits="userSpaceOnUse">
<stop stop-opacity="0"/>
<stop offset="1"/>
</linearGradient>
<linearGradient id="paint4_linear" x1="193.805" y1="138.34" x2="193.805" y2="162.005" gradientUnits="userSpaceOnUse">
<stop stop-opacity="0"/>
<stop offset="1"/>
</linearGradient>
<linearGradient id="paint5_linear" x1="224.664" y1="93.812" x2="224.664" y2="127.47" gradientUnits="userSpaceOnUse">
<stop stop-opacity="0"/>
<stop offset="1"/>
</linearGradient>
<linearGradient id="paint6_linear" x1="163.261" y1="155.321" x2="163.261" y2="178.985" gradientUnits="userSpaceOnUse">
<stop stop-opacity="0"/>
<stop offset="1"/>
</linearGradient>
<linearGradient id="paint7_linear" x1="193.261" y1="89.3206" x2="193.261" y2="112.985" gradientUnits="userSpaceOnUse">
<stop stop-opacity="0"/>
<stop offset="1"/>
</linearGradient>
<linearGradient id="paint8_linear" x1="186.175" y1="64" x2="186.175" y2="87.6648" gradientUnits="userSpaceOnUse">
<stop stop-opacity="0"/>
<stop offset="1"/>
</linearGradient>
<linearGradient id="paint9_linear" x1="205.411" y1="-14" x2="205.411" y2="9.66482" gradientUnits="userSpaceOnUse">
<stop stop-opacity="0"/>
<stop offset="1"/>
</linearGradient>
<linearGradient id="paint10_linear" x1="155.576" y1="98.069" x2="155.576" y2="114.365" gradientUnits="userSpaceOnUse">
<stop stop-opacity="0"/>
<stop offset="1"/>
</linearGradient>
<linearGradient id="paint11_linear" x1="159.043" y1="-7.88025" x2="159.043" y2="12.0717" gradientUnits="userSpaceOnUse">
<stop stop-opacity="0"/>
<stop offset="1"/>
</linearGradient>
<linearGradient id="paint12_linear" x1="275.583" y1="46" x2="275.583" y2="69.6648" gradientUnits="userSpaceOnUse">
<stop stop-opacity="0"/>
<stop offset="1"/>
</linearGradient>
<linearGradient id="paint13_linear" x1="259.615" y1="148.248" x2="259.615" y2="165.23" gradientUnits="userSpaceOnUse">
<stop stop-opacity="0"/>
<stop offset="1"/>
</linearGradient>
</defs>
</svg>
