<svg width="296" height="52" viewBox="0 0 296 52" fill="none" xmlns="http://www.w3.org/2000/svg">
<path d="M2 12.6784C12.0766 12 12.9774 39.6429 18.3816 39.6429C24.1799 39.6429 27.6138 12 32.9055 12C38.1971 12 41.4622 39.4167 47.4856 39.4167C48.4999 39.4167 49.3217 38.8981 50 38.0035" stroke="#374785" stroke-width="4" stroke-linecap="round" stroke-linejoin="round"/>
<path d="M5.42847 26.863C10.7738 24.1043 8.01674 12 12.912 12C19.1576 12 21.6896 39.6429 27.3163 39.6429C33.7769 39.6429 35.6801 13.907 41.2142 12.0998" stroke="#D93F87" stroke-width="4" stroke-linecap="round" stroke-linejoin="round"/>
<path d="M10.1428 39.6429C16.9228 39.6429 16.3013 12 23.4768 12C29.5787 12 31.7822 39.6429 37.7147 39.6429C42.5112 39.6429 40.5962 28.2141 45.2857 23.3161" stroke="#91CCF4" stroke-width="4" stroke-linecap="round" stroke-linejoin="round"/>
<path d="M12.9121 12C19.1577 12 21.6897 39.6429 27.3164 39.6429" stroke="#D93F87" stroke-width="4" stroke-linecap="round" stroke-linejoin="round"/>
<path d="M2 12.6784C12.0766 12 12.9774 39.6429 18.3816 39.6429" stroke="#374785" stroke-width="4" stroke-linecap="round" stroke-linejoin="round"/>
<path d="M32.9054 12C38.197 12 41.4621 39.4167 47.4856 39.4167C48.4998 39.4167 49.3216 38.8981 49.9999 38.0035" stroke="#374785" stroke-width="4" stroke-linecap="round" stroke-linejoin="round"/>
<path d="M66.32 39.228C65.5853 39.228 64.99 39 64.534 38.544C64.1033 38.088 63.888 37.4927 63.888 36.758V14.528C63.888 13.7933 64.0907 13.2233 64.496 12.818C64.9267 12.4127 65.5093 12.21 66.244 12.21H79.582C81.1273 12.21 81.9 12.8687 81.9 14.186C81.9 15.478 81.1273 16.124 79.582 16.124H68.714V23.42H78.822C80.3673 23.42 81.14 24.0787 81.14 25.396C81.14 26.688 80.3673 27.334 78.822 27.334H68.714V36.758C68.714 37.4927 68.4987 38.088 68.068 38.544C67.6373 39 67.0547 39.228 66.32 39.228ZM87.3494 39.228C86.6654 39.228 86.0954 39.038 85.6394 38.658C85.2088 38.2527 84.9934 37.6827 84.9934 36.948V22.28C84.9934 21.5453 85.2088 20.988 85.6394 20.608C86.0954 20.228 86.6654 20.038 87.3494 20.038C88.0334 20.038 88.6034 20.228 89.0594 20.608C89.5154 20.988 89.7434 21.5453 89.7434 22.28V36.948C89.7434 37.6827 89.5154 38.2527 89.0594 38.658C88.6034 39.038 88.0334 39.228 87.3494 39.228ZM87.3494 16.656C86.4881 16.656 85.8041 16.428 85.2974 15.972C84.7908 15.4907 84.5374 14.87 84.5374 14.11C84.5374 13.35 84.7908 12.742 85.2974 12.286C85.8041 11.83 86.4881 11.602 87.3494 11.602C88.1854 11.602 88.8568 11.83 89.3634 12.286C89.8954 12.742 90.1614 13.35 90.1614 14.11C90.1614 14.87 89.9081 15.4907 89.4014 15.972C88.8948 16.428 88.2108 16.656 87.3494 16.656ZM105.32 19.962C106.941 19.962 108.373 20.3547 109.614 21.14C110.855 21.9253 111.818 23.04 112.502 24.484C113.211 25.928 113.566 27.6127 113.566 29.538C113.566 31.4633 113.211 33.1733 112.502 34.668C111.818 36.1373 110.843 37.2773 109.576 38.088C108.335 38.8987 106.916 39.304 105.32 39.304C103.977 39.304 102.774 39.0127 101.71 38.43C100.671 37.8473 99.8732 37.0367 99.3159 35.998V36.948C99.3159 37.632 99.1005 38.1767 98.6699 38.582C98.2392 38.9873 97.6692 39.19 96.9599 39.19C96.2505 39.19 95.6805 38.9873 95.2499 38.582C94.8445 38.1767 94.6419 37.632 94.6419 36.948V14.224C94.6419 13.5653 94.8572 13.0333 95.2879 12.628C95.7439 12.2227 96.3265 12.02 97.0359 12.02C97.7452 12.02 98.3152 12.21 98.7459 12.59C99.1765 12.97 99.3919 13.4893 99.3919 14.148V23.116C99.9492 22.1027 100.747 21.33 101.786 20.798C102.825 20.2407 104.003 19.962 105.32 19.962ZM104.066 35.618C105.561 35.618 106.726 35.086 107.562 34.022C108.398 32.958 108.816 31.4633 108.816 29.538C108.816 27.638 108.398 26.1813 107.562 25.168C106.751 24.1547 105.586 23.648 104.066 23.648C102.546 23.648 101.368 24.1673 100.532 25.206C99.7212 26.2193 99.3159 27.6887 99.3159 29.614C99.3159 31.5393 99.7212 33.0213 100.532 34.06C101.368 35.0987 102.546 35.618 104.066 35.618ZM132.17 33.908C132.601 33.908 132.943 34.0727 133.196 34.402C133.475 34.7313 133.614 35.1747 133.614 35.732C133.614 36.5173 133.145 37.176 132.208 37.708C131.347 38.1893 130.371 38.582 129.282 38.886C128.193 39.1647 127.154 39.304 126.166 39.304C123.177 39.304 120.808 38.4427 119.06 36.72C117.312 34.9973 116.438 32.6413 116.438 29.652C116.438 27.752 116.818 26.0673 117.578 24.598C118.338 23.1287 119.402 21.9887 120.77 21.178C122.163 20.3673 123.734 19.962 125.482 19.962C127.154 19.962 128.611 20.3293 129.852 21.064C131.093 21.7987 132.056 22.8373 132.74 24.18C133.424 25.5227 133.766 27.106 133.766 28.93C133.766 30.0193 133.285 30.564 132.322 30.564H121.112C121.264 32.312 121.758 33.604 122.594 34.44C123.43 35.2507 124.646 35.656 126.242 35.656C127.053 35.656 127.762 35.5547 128.37 35.352C129.003 35.1493 129.713 34.8707 130.498 34.516C131.258 34.1107 131.815 33.908 132.17 33.908ZM125.596 23.306C124.304 23.306 123.265 23.7113 122.48 24.522C121.72 25.3327 121.264 26.498 121.112 28.018H129.7C129.649 26.4727 129.269 25.3073 128.56 24.522C127.851 23.7113 126.863 23.306 125.596 23.306ZM148.026 20.038C148.684 19.9873 149.204 20.1267 149.584 20.456C149.964 20.7853 150.154 21.2793 150.154 21.938C150.154 22.622 149.989 23.1287 149.66 23.458C149.33 23.7873 148.735 24.0027 147.874 24.104L146.734 24.218C145.239 24.37 144.137 24.8767 143.428 25.738C142.744 26.5993 142.402 27.676 142.402 28.968V36.948C142.402 37.6827 142.174 38.2527 141.718 38.658C141.262 39.038 140.692 39.228 140.008 39.228C139.324 39.228 138.754 39.038 138.298 38.658C137.867 38.2527 137.652 37.6827 137.652 36.948V22.242C137.652 21.5327 137.867 20.988 138.298 20.608C138.754 20.228 139.311 20.038 139.97 20.038C140.628 20.038 141.16 20.228 141.566 20.608C141.971 20.9627 142.174 21.482 142.174 22.166V23.686C142.655 22.5713 143.364 21.71 144.302 21.102C145.264 20.494 146.328 20.152 147.494 20.076L148.026 20.038ZM158.739 39.304C155.978 39.304 153.748 38.7593 152.051 37.67C151.24 37.1887 150.835 36.5047 150.835 35.618C150.835 35.1113 150.974 34.706 151.253 34.402C151.532 34.0727 151.874 33.908 152.279 33.908C152.71 33.908 153.305 34.1107 154.065 34.516C154.876 34.896 155.61 35.1873 156.269 35.39C156.953 35.5927 157.814 35.694 158.853 35.694C159.917 35.694 160.74 35.5167 161.323 35.162C161.931 34.8073 162.235 34.3133 162.235 33.68C162.235 33.2493 162.108 32.9073 161.855 32.654C161.627 32.4007 161.196 32.1727 160.563 31.97C159.955 31.742 159.018 31.4887 157.751 31.21C155.496 30.754 153.875 30.108 152.887 29.272C151.924 28.436 151.443 27.2833 151.443 25.814C151.443 24.6993 151.772 23.6987 152.431 22.812C153.09 21.9 153.989 21.2033 155.129 20.722C156.294 20.2153 157.612 19.962 159.081 19.962C160.145 19.962 161.171 20.1013 162.159 20.38C163.147 20.6333 164.034 21.0133 164.819 21.52C165.63 22.0267 166.035 22.698 166.035 23.534C166.035 24.0407 165.896 24.4713 165.617 24.826C165.338 25.1553 164.996 25.32 164.591 25.32C164.312 25.32 164.034 25.2693 163.755 25.168C163.502 25.0413 163.172 24.864 162.767 24.636C162.032 24.256 161.399 23.9773 160.867 23.8C160.335 23.5973 159.676 23.496 158.891 23.496C157.954 23.496 157.206 23.686 156.649 24.066C156.117 24.446 155.851 24.9653 155.851 25.624C155.851 26.2573 156.13 26.7387 156.687 27.068C157.244 27.3973 158.321 27.7267 159.917 28.056C161.614 28.4107 162.944 28.816 163.907 29.272C164.87 29.728 165.554 30.298 165.959 30.982C166.39 31.666 166.605 32.54 166.605 33.604C166.605 35.3267 165.883 36.7073 164.439 37.746C163.02 38.7847 161.12 39.304 158.739 39.304Z" fill="#374785"/>
<path d="M202.129 12.02C202.863 12.02 203.446 12.248 203.877 12.704C204.307 13.1347 204.523 13.7173 204.523 14.452V36.758C204.523 37.4927 204.295 38.088 203.839 38.544C203.408 39 202.838 39.228 202.129 39.228C201.394 39.228 200.811 39 200.381 38.544C199.95 38.088 199.735 37.4927 199.735 36.758V27.372H186.017V36.758C186.017 37.4927 185.789 38.088 185.333 38.544C184.902 39 184.319 39.228 183.585 39.228C182.875 39.228 182.293 39 181.837 38.544C181.406 38.088 181.191 37.4927 181.191 36.758V14.452C181.191 13.7173 181.406 13.1347 181.837 12.704C182.267 12.248 182.85 12.02 183.585 12.02C184.319 12.02 184.902 12.248 185.333 12.704C185.789 13.1347 186.017 13.7173 186.017 14.452V23.42H199.735V14.452C199.735 13.7173 199.95 13.1347 200.381 12.704C200.811 12.248 201.394 12.02 202.129 12.02ZM224.572 33.908C225.003 33.908 225.345 34.0727 225.598 34.402C225.877 34.7313 226.016 35.1747 226.016 35.732C226.016 36.5173 225.548 37.176 224.61 37.708C223.749 38.1893 222.774 38.582 221.684 38.886C220.595 39.1647 219.556 39.304 218.568 39.304C215.579 39.304 213.21 38.4427 211.462 36.72C209.714 34.9973 208.84 32.6413 208.84 29.652C208.84 27.752 209.22 26.0673 209.98 24.598C210.74 23.1287 211.804 21.9887 213.172 21.178C214.566 20.3673 216.136 19.962 217.884 19.962C219.556 19.962 221.013 20.3293 222.254 21.064C223.496 21.7987 224.458 22.8373 225.142 24.18C225.826 25.5227 226.168 27.106 226.168 28.93C226.168 30.0193 225.687 30.564 224.724 30.564H213.514C213.666 32.312 214.16 33.604 214.996 34.44C215.832 35.2507 217.048 35.656 218.644 35.656C219.455 35.656 220.164 35.5547 220.772 35.352C221.406 35.1493 222.115 34.8707 222.9 34.516C223.66 34.1107 224.218 33.908 224.572 33.908ZM217.998 23.306C216.706 23.306 215.668 23.7113 214.882 24.522C214.122 25.3327 213.666 26.498 213.514 28.018H222.102C222.052 26.4727 221.672 25.3073 220.962 24.522C220.253 23.7113 219.265 23.306 217.998 23.306ZM232.41 39.228C231.726 39.228 231.156 39.038 230.7 38.658C230.269 38.2527 230.054 37.6827 230.054 36.948V14.262C230.054 13.5273 230.269 12.97 230.7 12.59C231.156 12.21 231.726 12.02 232.41 12.02C233.094 12.02 233.664 12.21 234.12 12.59C234.576 12.97 234.804 13.5273 234.804 14.262V36.948C234.804 37.6827 234.576 38.2527 234.12 38.658C233.664 39.038 233.094 39.228 232.41 39.228ZM250.38 19.962C251.976 19.962 253.395 20.3673 254.636 21.178C255.903 21.9887 256.878 23.1413 257.562 24.636C258.272 26.1053 258.626 27.8027 258.626 29.728C258.626 31.6533 258.272 33.338 257.562 34.782C256.878 36.226 255.916 37.3407 254.674 38.126C253.433 38.9113 252.002 39.304 250.38 39.304C249.063 39.304 247.885 39.0253 246.846 38.468C245.808 37.9107 245.01 37.138 244.452 36.15V43.902C244.452 44.5607 244.237 45.08 243.806 45.46C243.376 45.84 242.806 46.03 242.096 46.03C241.387 46.03 240.804 45.8273 240.348 45.422C239.918 45.0167 239.702 44.4847 239.702 43.826V22.28C239.702 21.596 239.905 21.0513 240.31 20.646C240.741 20.2407 241.311 20.038 242.02 20.038C242.73 20.038 243.3 20.2407 243.73 20.646C244.161 21.0513 244.376 21.596 244.376 22.28V23.23C244.934 22.1913 245.732 21.3933 246.77 20.836C247.834 20.2533 249.038 19.962 250.38 19.962ZM249.126 35.618C250.621 35.618 251.786 35.1113 252.622 34.098C253.458 33.0593 253.876 31.6027 253.876 29.728C253.876 27.8027 253.458 26.308 252.622 25.244C251.786 24.18 250.621 23.648 249.126 23.648C247.606 23.648 246.428 24.1673 245.592 25.206C244.782 26.2447 244.376 27.7267 244.376 29.652C244.376 31.552 244.782 33.0213 245.592 34.06C246.428 35.0987 247.606 35.618 249.126 35.618ZM277.231 33.908C277.661 33.908 278.003 34.0727 278.257 34.402C278.535 34.7313 278.675 35.1747 278.675 35.732C278.675 36.5173 278.206 37.176 277.269 37.708C276.407 38.1893 275.432 38.582 274.343 38.886C273.253 39.1647 272.215 39.304 271.227 39.304C268.237 39.304 265.869 38.4427 264.121 36.72C262.373 34.9973 261.499 32.6413 261.499 29.652C261.499 27.752 261.879 26.0673 262.639 24.598C263.399 23.1287 264.463 21.9887 265.831 21.178C267.224 20.3673 268.795 19.962 270.543 19.962C272.215 19.962 273.671 20.3293 274.913 21.064C276.154 21.7987 277.117 22.8373 277.801 24.18C278.485 25.5227 278.827 27.106 278.827 28.93C278.827 30.0193 278.345 30.564 277.383 30.564H266.173C266.325 32.312 266.819 33.604 267.655 34.44C268.491 35.2507 269.707 35.656 271.303 35.656C272.113 35.656 272.823 35.5547 273.431 35.352C274.064 35.1493 274.773 34.8707 275.559 34.516C276.319 34.1107 276.876 33.908 277.231 33.908ZM270.657 23.306C269.365 23.306 268.326 23.7113 267.541 24.522C266.781 25.3327 266.325 26.498 266.173 28.018H274.761C274.71 26.4727 274.33 25.3073 273.621 24.522C272.911 23.7113 271.923 23.306 270.657 23.306ZM293.086 20.038C293.745 19.9873 294.264 20.1267 294.644 20.456C295.024 20.7853 295.214 21.2793 295.214 21.938C295.214 22.622 295.05 23.1287 294.72 23.458C294.391 23.7873 293.796 24.0027 292.934 24.104L291.794 24.218C290.3 24.37 289.198 24.8767 288.488 25.738C287.804 26.5993 287.462 27.676 287.462 28.968V36.948C287.462 37.6827 287.234 38.2527 286.778 38.658C286.322 39.038 285.752 39.228 285.068 39.228C284.384 39.228 283.814 39.038 283.358 38.658C282.928 38.2527 282.712 37.6827 282.712 36.948V22.242C282.712 21.5327 282.928 20.988 283.358 20.608C283.814 20.228 284.372 20.038 285.03 20.038C285.689 20.038 286.221 20.228 286.626 20.608C287.032 20.9627 287.234 21.482 287.234 22.166V23.686C287.716 22.5713 288.425 21.71 289.362 21.102C290.325 20.494 291.389 20.152 292.554 20.076L293.086 20.038Z" fill="#D93F87"/>
</svg>
